<?xml version="1.0" encoding="UTF-8" standalone="no"?>
<!DOCTYPE svg PUBLIC "-//W3C//DTD SVG 1.1//EN" "http://www.w3.org/Graphics/SVG/1.1/DTD/svg11.dtd">
<svg width="100%" height="100%" viewBox="0 0 63 63" version="1.1" xmlns="http://www.w3.org/2000/svg" xmlns:xlink="http://www.w3.org/1999/xlink" xml:space="preserve" xmlns:serif="http://www.serif.com/" style="fill-rule:evenodd;clip-rule:evenodd;stroke-linejoin:round;stroke-miterlimit:2;">
    <rect id="Page-1" serif:id="Page 1" x="0" y="0" width="63" height="63" style="fill:none;"/>
    <clipPath id="_clip1">
        <rect id="Page-11" serif:id="Page 1" x="0" y="0" width="63" height="63"/>
    </clipPath>
    <g clip-path="url(#_clip1)">
        <g id="logo_color">
            <g transform="matrix(1,0,0,1,34.5527,19.1812)">
                <path d="M0,10.143L14.39,-8.233C10.229,-11.705 4.876,-13.796 -0.967,-13.796C-14.214,-13.796 -24.954,-3.057 -24.954,10.191C-24.954,15.307 -23.347,20.045 -20.618,23.939L-5.167,5.594L0,10.143Z" style="fill:rgb(76,189,202);fill-rule:nonzero;"/>
            </g>
            <g transform="matrix(1,0,0,1,35.3594,30.7333)">
                <path d="M0,7.294L-5.335,2.598L-17.355,16.869C-13.163,20.455 -7.723,22.627 -1.773,22.627C11.475,22.627 22.214,11.887 22.214,-1.361C22.214,-6.576 20.545,-11.398 17.719,-15.333L0,7.294Z" style="fill:rgb(249,92,40);fill-rule:nonzero;"/>
            </g>
            <g transform="matrix(0,-1,-1,0,7.4499,48.0266)">
                <path d="M-7.45,-7.45C-11.564,-7.45 -14.9,-4.115 -14.9,0C-14.9,4.114 -11.564,7.45 -7.45,7.45C-3.335,7.45 0,4.114 0,0C0,-4.115 -3.335,-7.45 -7.45,-7.45" style="fill:rgb(76,189,202);fill-rule:nonzero;"/>
            </g>
            <g transform="matrix(1,0,0,1,63,-0.0733)">
                <path d="M0,14.9L-14.9,0L0,0L0,14.9Z" style="fill:rgb(76,189,202);fill-rule:nonzero;"/>
            </g>
        </g>
    </g>
</svg>
